<svg data-v-423bf9ae="" xmlns="http://www.w3.org/2000/svg" viewBox="0 0 406.501437057221 60" class="font"><!----><!----><defs data-v-423bf9ae=""><linearGradient data-v-423bf9ae="" gradientTransform="rotate(25)" id="e2fc48b8-24a6-4bb3-bde9-8354619c94e6" x1="0%" y1="0%" x2="100%" y2="0%"><stop data-v-423bf9ae="" offset="0%" style="stop-color: rgb(233, 13, 202); stop-opacity: 1;"></stop><stop data-v-423bf9ae="" offset="100%" style="stop-color: rgb(21, 54, 241); stop-opacity: 1;"></stop></linearGradient></defs><g data-v-423bf9ae="" id="d85171f2-8b6c-4356-9a68-f44f44f99b0a" fill="url(#e2fc48b8-24a6-4bb3-bde9-8354619c94e6)" transform="matrix(5.71973320392212,0,0,5.71973320392212,-4.346996877027692,-18.81792202271327)"><path d="M5.73 8.43L5.73 10.39L7.60 10.39C7.25 11.45 6.61 11.93 5.63 11.93C4.44 11.93 3.39 11.10 3.39 8.67C3.39 6.58 4.41 5.57 5.64 5.57C6.66 5.57 7.29 6.06 7.50 7.10L7.53 7.24L10.05 7.24L10.04 7.10C9.84 5.19 8.43 3.72 5.67 3.72C3.02 3.72 0.76 5.46 0.76 8.82C0.76 12.07 2.56 13.78 5.14 13.78C6.16 13.78 6.82 13.62 7.36 13.16L7.78 12.10L8.02 13.58L9.98 13.58L9.98 8.43ZM13.85 3.29L11.33 3.29L11.33 10.93C11.33 11.49 11.33 11.87 11.35 12.26C11.41 13.26 12.07 13.72 13.23 13.72C13.79 13.72 14.24 13.69 14.70 13.65L14.70 11.94C14.04 11.97 13.92 11.87 13.87 11.58C13.85 11.40 13.85 11.24 13.85 10.89ZM19.25 5.91C16.80 5.91 15.23 7.43 15.23 9.84C15.23 12.24 16.80 13.78 19.25 13.78C21.70 13.78 23.27 12.24 23.27 9.84C23.27 7.43 21.70 5.91 19.25 5.91ZM19.25 12.07C18.35 12.07 17.81 11.33 17.81 9.84C17.81 8.34 18.35 7.62 19.25 7.62C20.15 7.62 20.69 8.34 20.69 9.84C20.69 11.33 20.15 12.07 19.25 12.07ZM29.34 5.91C28.59 5.91 27.86 6.06 27.44 6.37L26.88 7.20L26.88 3.29L24.36 3.29L24.36 13.58L26.88 13.58L26.88 12.61L27.37 13.41C27.75 13.64 28.48 13.78 29.09 13.78C31.01 13.78 32.63 12.33 32.63 9.67C32.63 7.46 31.37 5.91 29.34 5.91ZM28.41 12.07C27.65 12.07 26.88 11.56 26.88 10.07L26.88 9.74C26.88 8.18 27.55 7.62 28.48 7.62C29.36 7.62 30.06 8.40 30.06 9.80C30.06 11.33 29.39 12.07 28.41 12.07ZM38.11 13.58L40.57 13.58C40.46 12.75 40.43 12.25 40.43 11.69L40.43 9.59C40.43 9.13 40.42 8.69 40.39 8.32C40.28 6.96 39.47 5.91 37.10 5.91C35.21 5.91 33.66 6.90 33.64 8.65L36.02 8.64C36.06 7.99 36.40 7.62 36.99 7.62C37.53 7.62 37.84 7.95 37.88 8.33C37.91 8.57 37.91 8.72 37.91 8.88L37.91 8.99L37.44 8.99C34.90 8.99 33.39 9.97 33.39 11.56C33.39 13.01 34.55 13.78 35.78 13.78C36.47 13.78 37.10 13.61 37.63 13.27L37.94 12.49ZM36.82 12.07C36.32 12.07 35.97 11.82 35.97 11.37C35.97 10.63 36.78 10.33 37.91 10.42L37.91 10.91C37.91 11.69 37.32 12.07 36.82 12.07ZM44.41 3.29L41.89 3.29L41.89 10.93C41.89 11.49 41.89 11.87 41.92 12.26C41.97 13.26 42.63 13.72 43.79 13.72C44.35 13.72 44.80 13.69 45.26 13.65L45.26 11.94C44.60 11.97 44.48 11.87 44.44 11.58C44.41 11.40 44.41 11.24 44.41 10.89ZM54.11 11.23C53.97 10.07 53.61 9.32 52.60 8.96C53.89 8.58 54.54 7.77 54.54 6.55C54.54 4.84 53.33 4.16 51.93 3.99C51.41 3.93 51.02 3.92 50.41 3.92L46.58 3.92L46.58 13.58L49.10 13.58L49.10 9.91L49.66 9.91C49.94 9.91 50.18 9.91 50.46 9.93C51.10 9.97 51.52 10.58 51.65 11.65C51.73 12.33 51.87 12.89 52.09 13.58L54.84 13.58C54.46 13.01 54.24 12.32 54.11 11.23ZM49.10 8.09L49.10 5.88L50.08 5.88C50.34 5.88 50.57 5.88 50.75 5.89C51.39 5.95 51.91 6.17 51.91 6.99C51.91 7.80 51.32 8.02 50.68 8.08C50.50 8.09 50.27 8.09 50.01 8.09ZM60.14 13.58L62.61 13.58C62.50 12.75 62.47 12.25 62.47 11.69L62.47 9.59C62.47 9.13 62.45 8.69 62.43 8.32C62.31 6.96 61.50 5.91 59.14 5.91C57.25 5.91 55.69 6.90 55.68 8.65L58.06 8.64C58.10 7.99 58.44 7.62 59.02 7.62C59.57 7.62 59.88 7.95 59.92 8.33C59.95 8.57 59.95 8.72 59.95 8.88L59.95 8.99L59.47 8.99C56.94 8.99 55.43 9.97 55.43 11.56C55.43 13.01 56.59 13.78 57.82 13.78C58.51 13.78 59.14 13.61 59.67 13.27L59.98 12.49ZM58.86 12.07C58.35 12.07 58.00 11.82 58.00 11.37C58.00 10.63 58.81 10.33 59.95 10.42L59.95 10.91C59.95 11.69 59.36 12.07 58.86 12.07ZM71.83 3.29L69.31 3.29L69.31 7.07L68.82 6.27C68.45 6.05 67.72 5.91 67.10 5.91C65.18 5.91 63.56 7.35 63.56 10.01C63.56 12.22 64.82 13.78 66.85 13.78C67.61 13.78 68.33 13.62 68.75 13.31L69.31 12.49L69.31 13.58L71.83 13.58ZM67.72 12.07C66.84 12.07 66.14 11.28 66.14 9.88C66.14 8.36 66.81 7.62 67.79 7.62C68.54 7.62 69.31 8.12 69.31 9.62L69.31 9.94C69.31 11.51 68.64 12.07 67.72 12.07Z"></path></g><!----><!----></svg>